<?xml version="1.0"?>
<svg xmlns="http://www.w3.org/2000/svg" xmlns:xlink="http://www.w3.org/1999/xlink" xmlns:svgjs="http://svgjs.com/svgjs" version="1.1" width="512" height="512" x="0" y="0" viewBox="0 0 512 512" style="enable-background:new 0 0 512 512" xml:space="preserve" class=""><g transform="matrix(1,0,0,1,5.684341886080802e-14,5.684341886080802e-14)"><g xmlns="http://www.w3.org/2000/svg"><g><path d="m497.01 272.671h-123.018v-48.274c0-4.142-3.357-7.5-7.5-7.5s-7.5 3.358-7.5 7.5v259.809h-34.649v-95.588c0-9.789-7.964-17.752-17.752-17.752h-101.182c-9.788 0-17.752 7.963-17.752 17.752v95.588h-34.653v-363.056h205.988v70.255c0 4.142 3.357 7.5 7.5 7.5s7.5-3.358 7.5-7.5v-70.645c6.654-1.526 11.636-7.482 11.636-14.592v-20.706c0-8.261-6.721-14.982-14.982-14.982h-23.759c1.761-3.569 2.754-7.582 2.754-11.824v-19.035c0-14.791-12.033-26.824-26.823-26.824-14.791 0-26.824 12.033-26.824 26.824v19.036c0 4.242.994 8.254 2.754 11.824h-17.62c1.761-3.569 2.754-7.582 2.754-11.824v-4.759c0-4.142-3.357-7.5-7.5-7.5h-12.114c-4.143 0-7.5 3.358-7.5 7.5s3.357 7.5 7.5 7.5h4.294c-1.239 5.203-5.927 9.083-11.504 9.083-6.52 0-11.824-5.304-11.824-11.824v-19.036c0-6.52 5.305-11.824 11.824-11.824 4.208 0 8.009 2.162 10.167 5.783 2.122 3.559 6.725 4.722 10.283 2.602 3.558-2.121 4.723-6.725 2.602-10.282-4.818-8.082-13.651-13.102-23.052-13.102-14.791 0-26.824 12.033-26.824 26.824v19.036c0 4.242.994 8.254 2.754 11.824h-16.981v-50.186c0-4.142-3.357-7.5-7.5-7.5s-7.5 3.358-7.5 7.5v33.015l-24.917-37.19c-1.837-2.742-5.255-3.963-8.412-3.001-3.159.96-5.318 3.874-5.318 7.176v50.184h-21.009c-8.261 0-14.981 6.721-14.981 14.982v20.707c0 7.109 4.982 13.065 11.635 14.592v151.91h-123.025c-8.261 0-14.98 6.72-14.98 14.98v20.71c0 7.109 4.982 13.065 11.636 14.59v168.754c0 4.142 3.357 7.5 7.5 7.5h473.726c4.143 0 7.5-3.358 7.5-7.5v-58.075c0-4.142-3.357-7.5-7.5-7.5s-7.5 3.358-7.5 7.5v50.574h-111.37v-160.864h111.369v77.299c0 4.142 3.357 7.5 7.5 7.5s7.5-3.358 7.5-7.5v-77.69c6.655-1.527 11.639-7.482 11.639-14.589v-20.71c0-8.259-6.725-14.979-14.99-14.979zm-186.017-214.015v-19.035c0-6.52 5.305-11.824 11.824-11.824s11.823 5.304 11.823 11.824v19.036c0 6.52-5.304 11.824-11.823 11.824s-11.824-5.305-11.824-11.825zm-133.634-13.691 17.095 25.515h-17.095zm193.269 40.497.025 20.688-229.284.019-.019-20.688zm-343.992 237.878h38.544c4.143 0 7.5-3.358 7.5-7.5s-3.357-7.5-7.5-7.5l-50.18.02-.02-20.69h123.023v20.67h-39.823c-4.143 0-7.5 3.358-7.5 7.5s3.357 7.5 7.5 7.5h39.824v160.864h-111.368zm176.021 65.276c0-1.518 1.234-2.752 2.752-2.752h43.091v98.34h-45.843zm106.686 95.589h-45.843v-98.34h43.091c1.518 0 2.752 1.234 2.752 2.752zm64.649-196.535 123.008-.02.01 20.69h-123.018z" fill="#1f6fff" data-original="#000000" style="" class=""/><path d="m466.097 415.981v-37.356c0-9.789-7.964-17.752-17.752-17.752h-37.356c-9.789 0-17.753 7.964-17.753 17.752v37.356c0 9.789 7.964 17.752 17.753 17.752h37.356c9.788 0 17.752-7.964 17.752-17.752zm-15-37.357v37.356c0 1.518-1.234 2.752-2.752 2.752h-11.179v-42.861h11.179c1.517.001 2.752 1.236 2.752 2.753zm-42.862 37.357v-37.356c0-1.518 1.235-2.752 2.753-2.752h11.178v42.861h-11.178c-1.517-.001-2.753-1.236-2.753-2.753z" fill="#1f6fff" data-original="#000000" style="" class=""/><path d="m101.012 360.872h-37.357c-9.788 0-17.752 7.964-17.752 17.752v37.356c0 9.789 7.964 17.752 17.752 17.752h37.356c9.789 0 17.753-7.963 17.753-17.752v-37.356c.001-9.788-7.963-17.752-17.752-17.752zm-40.109 55.109v-37.356c0-1.518 1.234-2.752 2.752-2.752h11.179v42.861h-11.179c-1.517-.001-2.752-1.236-2.752-2.753zm42.862 0c0 1.518-1.235 2.752-2.753 2.752h-11.178v-42.861h11.178c1.518 0 2.753 1.235 2.753 2.752z" fill="#1f6fff" data-original="#000000" style="" class=""/><path d="m292.431 169.518c0-9.789-7.964-17.752-17.752-17.752h-37.357c-9.788 0-17.752 7.964-17.752 17.752v37.356c0 9.789 7.964 17.752 17.752 17.752h37.357c9.788 0 17.752-7.963 17.752-17.752zm-57.862 37.356v-37.356c0-1.518 1.234-2.752 2.752-2.752h11.179v42.861h-11.179c-1.517-.001-2.752-1.235-2.752-2.753zm42.862 0c0 1.518-1.234 2.752-2.752 2.752h-11.179v-42.861h11.179c1.518 0 2.752 1.235 2.752 2.752z" fill="#1f6fff" data-original="#000000" style="" class=""/><path d="m274.679 258.766h-37.357c-9.788 0-17.752 7.964-17.752 17.752v37.356c0 9.789 7.964 17.752 17.752 17.752h37.357c9.788 0 17.752-7.963 17.752-17.752v-37.356c0-9.788-7.964-17.752-17.752-17.752zm-40.11 55.109v-37.356c0-1.518 1.234-2.752 2.752-2.752h11.179v42.861h-11.179c-1.517-.001-2.752-1.235-2.752-2.753zm42.862 0c0 1.518-1.234 2.752-2.752 2.752h-11.179v-42.861h11.179c1.518 0 2.752 1.235 2.752 2.752z" fill="#1f6fff" data-original="#000000" style="" class=""/><path d="m190.656 161.495c0-4.142-3.357-7.5-7.5-7.5h-10.147c-4.143 0-7.5 3.358-7.5 7.5s3.357 7.5 7.5 7.5h10.147c4.143 0 7.5-3.358 7.5-7.5z" fill="#1f6fff" data-original="#000000" style="" class=""/><path d="m201.757 184.706c0-4.142-3.357-7.5-7.5-7.5h-10.147c-4.143 0-7.5 3.358-7.5 7.5s3.357 7.5 7.5 7.5h10.147c4.142 0 7.5-3.358 7.5-7.5z" fill="#1f6fff" data-original="#000000" style="" class=""/><path d="m317.743 270.004h10.147c4.143 0 7.5-3.358 7.5-7.5s-3.357-7.5-7.5-7.5h-10.147c-4.143 0-7.5 3.358-7.5 7.5s3.358 7.5 7.5 7.5z" fill="#1f6fff" data-original="#000000" style="" class=""/><path d="m424.593 451.675c-4.143 0-7.5 3.358-7.5 7.5s3.357 7.5 7.5 7.5h10.147c4.143 0 7.5-3.358 7.5-7.5s-3.357-7.5-7.5-7.5z" fill="#1f6fff" data-original="#000000" style="" class=""/><path d="m317.743 339.588h10.147c4.143 0 7.5-3.358 7.5-7.5s-3.357-7.5-7.5-7.5h-10.147c-4.143 0-7.5 3.358-7.5 7.5s3.358 7.5 7.5 7.5z" fill="#1f6fff" data-original="#000000" style="" class=""/><path d="m349.888 305.511c0-4.142-3.357-7.5-7.5-7.5h-10.148c-4.143 0-7.5 3.358-7.5 7.5s3.357 7.5 7.5 7.5h10.147c4.143 0 7.501-3.358 7.501-7.5z" fill="#1f6fff" data-original="#000000" style="" class=""/><path d="m179.035 352.412h10.147c4.143 0 7.5-3.358 7.5-7.5s-3.357-7.5-7.5-7.5h-10.147c-4.143 0-7.5 3.358-7.5 7.5s3.358 7.5 7.5 7.5z" fill="#1f6fff" data-original="#000000" style="" class=""/><path d="m60.418 451.675h-10.147c-4.143 0-7.5 3.358-7.5 7.5s3.357 7.5 7.5 7.5h10.147c4.143 0 7.5-3.358 7.5-7.5s-3.357-7.5-7.5-7.5z" fill="#1f6fff" data-original="#000000" style="" class=""/><path d="m403.47 352.412c4.143 0 7.5-3.358 7.5-7.5s-3.357-7.5-7.5-7.5h-10.147c-4.143 0-7.5 3.358-7.5 7.5s3.357 7.5 7.5 7.5z" fill="#1f6fff" data-original="#000000" style="" class=""/></g></g></g></svg>
