<?xml version="1.0"?>
<svg xmlns="http://www.w3.org/2000/svg" xmlns:xlink="http://www.w3.org/1999/xlink" xmlns:svgjs="http://svgjs.com/svgjs" version="1.1" width="512" height="512" x="0" y="0" viewBox="0 0 512 512" style="enable-background:new 0 0 512 512" xml:space="preserve" class=""><g><g xmlns="http://www.w3.org/2000/svg"><path d="m157.56 231.775c-12.53-12.882-33.761-12.943-46.5-.332-4.692 4.645-7.802 10.444-9.075 16.763l-15.837-15.502c-3.833-3.752-6.332-8.746-7.039-14.062l-11.939-89.803c-2.219-16.696-16.594-29.287-33.438-29.287-18.6 0-33.732 15.132-33.732 33.731v128.977c0 12.343 4.397 24.325 12.382 33.738l42.279 49.846c2.691 3.172 7.427 3.536 10.571.868 3.158-2.68 3.548-7.412.868-10.571l-42.279-49.846c-5.688-6.706-8.821-15.242-8.821-24.035v-128.977c0-10.328 8.403-18.731 18.732-18.731 9.354 0 17.336 6.992 18.568 16.264l11.938 89.804c1.146 8.621 5.2 16.72 11.416 22.804l35.536 34.784.001.001 33.639 32.927c2.875 2.822 7.668 2.887 10.605-.113 2.897-2.96 2.847-7.708-.113-10.605l-33.639-32.928c-3.437-3.365-5.337-7.868-5.351-12.678-.014-4.811 1.861-9.323 5.279-12.707 6.909-6.84 18.444-6.814 25.242.18l69.394 70.694c9.269 9.442 14.373 21.929 14.373 35.159v156.362c0 4.143 3.357 7.5 7.5 7.5s7.5-3.357 7.5-7.5v-156.363c0-17.185-6.63-33.403-18.668-45.667zm-68.436 131.508c-2.678-3.158-7.41-3.546-10.571-.868-3.158 2.68-3.548 7.412-.868 10.571l36.179 42.653c3.87 4.562 6.002 10.371 6.002 16.355v72.506c0 4.143 3.357 7.5 7.5 7.5s7.5-3.357 7.5-7.5v-72.505c0-9.533-3.396-18.788-9.562-26.059zm155.542-163.153h22.668c8.303 0 15.057-6.754 15.057-15.057v-39.727h39.727c8.303 0 15.057-6.754 15.057-15.057v-22.669c0-8.303-6.754-15.057-15.057-15.057h-39.727v-39.725c0-8.303-6.754-15.057-15.057-15.057h-22.668c-8.303 0-15.057 6.754-15.057 15.057v39.727h-39.727c-8.303 0-15.057 6.754-15.057 15.057v22.669c0 8.303 6.754 15.057 15.057 15.057h39.727v39.727c0 8.301 6.754 15.055 15.057 15.055zm-54.84-69.84.057-22.726h43.448c6.219 0 11.278-5.06 11.278-11.278l.057-43.505 22.725.057v43.448c0 6.219 5.06 11.278 11.278 11.278h43.448l.057.057-.057 22.726h-43.448c-6.219 0-11.278 5.059-11.278 11.277l-.057 43.506-22.725-.057v-43.449c0-6.219-5.06-11.277-11.278-11.277zm171.839 43.274c1.907-3.677.474-8.204-3.203-10.111-3.676-1.908-8.203-.474-10.111 3.203-18.001 34.699-53.388 56.255-92.351 56.255-57.321 0-103.955-46.635-103.955-103.956s46.634-103.955 103.955-103.955 103.955 46.634 103.955 103.955c0 5.572-.446 11.162-1.325 16.613-.659 4.089 2.121 7.939 6.21 8.599 4.093.665 7.938-2.121 8.599-6.21 1.006-6.238 1.517-12.632 1.517-19.002-.001-65.592-53.364-118.955-118.956-118.955s-118.955 53.363-118.955 118.955c0 65.593 53.363 118.956 118.955 118.956 44.586 0 85.075-24.656 105.665-64.347zm116.603-74.012c-16.844 0-31.219 12.591-33.438 29.287l-11.938 89.804c-.706 5.315-3.206 10.31-7.039 14.062l-15.837 15.502c-1.272-6.319-4.383-12.119-9.075-16.763-12.8-12.671-34.006-12.507-46.5.332l-69.394 70.694c-12.038 12.264-18.668 28.482-18.668 45.667v156.363c0 4.143 3.357 7.5 7.5 7.5s7.5-3.357 7.5-7.5v-156.363c0-13.23 5.104-25.717 14.373-35.159l69.394-70.694c6.76-6.977 18.326-7.027 25.242-.18 3.418 3.384 5.293 7.896 5.279 12.707-.014 4.81-1.914 9.313-5.351 12.678l-33.639 32.928c-2.96 2.897-3.011 7.646-.113 10.605 2.896 2.959 7.646 3.013 10.605.113l33.639-32.927.001-.001 35.536-34.784c6.216-6.084 10.271-14.183 11.416-22.804l11.938-89.804c1.232-9.271 9.215-16.264 18.568-16.264 10.329 0 18.732 8.403 18.732 18.731v128.978c0 8.793-3.133 17.329-8.821 24.035l-101.481 119.642c-6.166 7.271-9.562 16.525-9.562 26.059v72.504c0 4.143 3.357 7.5 7.5 7.5s7.5-3.357 7.5-7.5v-72.505c0-5.984 2.132-11.793 6.002-16.355l101.481-119.642c7.985-9.413 12.382-21.395 12.382-33.738v-128.977c0-18.599-15.133-33.731-33.732-33.731z" fill="#1f6fff" data-original="#000000" style="" class=""/></g></g></svg>
